<svg preserveAspectRatio="none" overflow="visible" style="display: block;" width="105.812" height="137.273" viewBox="0 0 105.812 137.273" fill="none" xmlns="http://www.w3.org/2000/svg">
<path id="lingayen" d="M98.1488 124.326L100.752 117.019L100.151 112.36L102.054 104.947L94.7443 103.994L90.3384 98.1693L87.0342 87.8972L81.2265 82.1788L81.0261 78.0489L91.3399 57.7165L93.9434 55.7045L94.544 51.4686L104.758 39.9256L94.3438 39.2904L82.2276 30.8185L79.2238 23.7234L83.4292 17.1578V13.7691L72.5148 8.68593L70.6122 13.9808L67.508 9.32141L67.2077 7.52097L70.3119 4.66177V7.52097L72.5148 6.03849L72.2143 0.74359L63.9032 4.34424L54.691 1.37905L48.3824 7.8387L49.4839 15.2516L47.1809 21.9232L48.3824 24.0411L45.2785 30.183L41.3732 33.1482L42.4747 35.9017L39.6708 43.1025L41.9741 45.75L46.58 46.915L45.2785 49.3507L40.5723 47.0209L36.9672 42.8908L29.4574 41.0906L32.9619 36.7489L35.0648 36.6429L32.6616 35.6899L32.4613 32.301L37.0675 29.336L34.6642 20.2287L31.3598 19.5935L25.7523 22.1349L26.3532 26.6886L23.0488 31.9835L21.9473 29.0183L20.2449 30.183L21.647 42.9968L26.0526 44.0558L22.9488 45.2205L18.6428 40.8788L11.9339 46.4915L9.1303 46.0677L8.02879 43.4203L3.22225 45.856L2.22107 51.5744L0.518682 53.0571L1.21961 61.7407L5.22494 64.5999L3.72288 67.1413L5.42523 70.4243L14.0368 63.7527L16.2398 60.258L19.1437 59.199L21.647 63.7527L19.6443 66.9296L20.2449 69.0475L24.1502 71.0595L28.0553 68.4121L33.8631 73.4952L38.5696 79.1078L39.9714 86.097L38.3693 88.4267L35.2651 86.7325L31.0595 89.2739L39.9714 93.9334L41.2732 90.6506L45.6789 89.9094L45.2785 87.2619L47.0809 88.1092L46.7803 91.3919L43.8765 92.7686L44.8779 95.6278L57.2943 105.264L62.5015 107.277L60.5988 111.936L63.603 114.372L62.2009 117.019L71.5134 121.467L70.9125 131.739L75.1182 136.716L81.8271 135.128L86.5334 129.833L94.544 127.503L98.1488 124.326Z" fill="#BFBFBF" stroke="white"/>
</svg>
